<?xml version="1.0" encoding="UTF-8" standalone="no"?>
<svg
   xmlnsDc="http://purl.org/dc/elements/1.1/"
   xmlnsCc="http://creativecommons.org/ns#"
   xmlnsRdf="http://www.w3.org/1999/02/22-rdf-syntax-ns#"
   xmlnsSvg="http://www.w3.org/2000/svg"
   xmlns="http://www.w3.org/2000/svg"
   width="10mm"
   height="10mm"
   viewBox="0 0 10 10"
   version="1.1"
   id="svg1644">
  <defs
     id="defs1638" />
  <metadata
     id="metadata1641">
    <rdfRDF>
      <ccWork
         rdfAbout="">
        <dcFormat>image/svg+xml</dcFormat>
        <dcType
           rdfResource="http://purl.org/dc/dcmitype/StillImage" />
        <dcTitle></dcTitle>
      </ccWork>
    </rdfRDF>
  </metadata>
  <g
     id="layer1">
    <path
       style="fill-opacity:1;stroke-width:0.019554"
       d="M 3.0401539,10.056947 C 2.8625737,9.9908065 2.7354036,9.8580166 2.6555137,9.6554005 c -0.0219,-0.05539 -0.0751,-0.2741102 -0.11831,-0.486088 -0.094,-0.4607869 -0.11476,-0.5287571 -0.2311,-0.7560691 -0.12399,-0.2422221 -0.31911,-0.437275 -0.56142,-0.561205 -0.22741,-0.116304 -0.29541,-0.137068 -0.75636,-0.231017 -0.21205999,-0.04319 -0.43089003,-0.09642 -0.48628003,-0.118255 -0.37095,-0.14615 -0.52289,-0.47932 -0.35729,-0.7834569 0.23377,-0.429341 1.15465003,-0.7847851 2.02610003,-0.782047 l 0.26891,8.996e-4 2.3e-4,-0.219306 c 3.89e-4,-0.3951668 0.0679,-0.8617368 0.18708,-1.290933 l 0.0533,-0.1918608 -0.0882,-0.09163 c -0.16966,-0.1761411 -0.36732,-0.4411869 -0.45332,-0.60784 -0.22889,-0.4435279 -0.19362,-0.8003281 0.10855,-1.098447 0.25527,-0.251845 0.6049599,-0.483919 1.05646,-0.701065 0.43346,-0.208499 0.87375,-0.34321 1.24801,-0.381839 0.1166,-0.01202 0.1403799,-0.02313 0.2933599,-0.136969 0.9002501,-0.66984604 2.13375,-1.09122705 3.32692,-1.13653405 0.1921402,-0.0072 0.4070901,-0.0036 0.5359501,0.0099 0.2233999,0.02286 0.61346,0.09389 0.6543199,0.119132 0.015401,0.0095 0.0272,0.105858 0.0347,0.28120301 l 0.0112,0.26671899 h 0.1506699 c 0.0829,0 0.2046901,0.0054 0.2707201,0.01256 0.1405099,0.0146399 0.1307398,-0.0036 0.2030904,0.38822705 0.0613,0.332754 0.0602,1.003793 -0.002,1.417384 -0.1571405,1.0371551 -0.5057304,1.9264789 -1.0566905,2.6958481 -0.1415101,0.1976379 -0.1579301,0.229707 -0.1579301,0.308628 0,0.198171 -0.1173099,0.6596538 -0.25644,1.0087718 -0.26665,0.6691421 -0.74838,1.356301 -1.0564199,1.5069511 -0.40656,0.1988301 -0.9128701,0.019971 -1.47805,-0.522124 l -0.1016601,-0.09757 -0.23076,0.06199 c -0.45158,0.1213268 -0.8506,0.1791859 -1.2356399,0.1791859 h -0.235751 l 7.408e-4,0.2688061 c 0.00201,0.8761039 -0.36302,1.8148729 -0.7917601,2.0320467 -0.1192598,0.06045 -0.28552,0.07644 -0.3897,0.03768 z M 3.2975837,9.2091074 c 0.0868,-0.1725541 0.1517099,-0.3683479 0.2101201,-0.63335 0.0477,-0.2163689 0.0533,-0.2811939 0.0538,-0.622731 l 5.027e-4,-0.3812329 -0.0796,-0.3089272 -0.0795,-0.3089349 0.0513,0.01057 c 0.77021,0.158042 1.4614599,0.1317649 2.1734801,-0.08268 C 6.7375864,6.5476124 7.8698464,5.7309293 8.5064164,4.8054523 8.7052265,4.5164053 8.7028365,4.5402975 8.5366165,4.5032584 7.6278138,4.3007313 6.8111037,3.7519603 6.2488837,2.9660364 6.1126239,2.7755824 5.8788838,2.3312684 5.7960438,2.1052764 l -0.0473,-0.129334 0.2866102,-0.09335 c 0.15763,-0.05133 0.2987699,-0.09431 0.3136098,-0.09549 0.015999,-9.023e-4 0.0418,0.04148 0.0635,0.105388 0.0201,0.0591 0.0852,0.204298 0.1447401,0.322571 0.3646799,0.7249749 1.0363099,1.305039 1.80849,1.5619081 0.2353101,0.07825 0.6056199,0.1581859 0.62577,0.1350359 0.0254,-0.02919 0.1712299,-0.4449111 0.23177,-0.6607831 0.078,-0.2781678 0.1517499,-0.6511059 0.1791401,-0.9057339 0.023601,-0.219234 0.0311,-0.887516 0.01,-0.921067 -0.008,-0.0131 -0.1223401,-0.02069 -0.3108801,-0.02069 -0.2057498,0 -0.30534,-0.0072 -0.3215399,-0.0234 -0.016201,-0.01617 -0.0234,-0.115743 -0.0234,-0.3214229 0,-0.18845707 -0.008,-0.30265508 -0.020701,-0.31074207 -0.0338,-0.0208701 -0.7028701,-0.01319 -0.9214199,0.0105701 C 6.8451617,0.86407055 5.8521016,1.2545295 5.1401515,1.8102495 4.4235916,2.3695656 3.7402916,3.2933898 3.4068015,4.1537436 3.0751217,5.0094447 3.0087417,5.8037898 3.1936717,6.7043187 l 0.011099,0.05132 -0.3090399,-0.07952 -0.30905,-0.07952 -0.38138,5.557e-4 c -0.34167,4.762e-4 -0.40653,0.0063 -0.62298,0.05376 -0.26855,0.05919 -0.46237,0.123803 -0.63848005,0.212953 l -0.11734736,0.059455 0.36036001,0.07373 c 0.55871,0.1143521 0.84702,0.229644 1.14786,0.4590341 0.4498201,0.3429929 0.68142,0.7711591 0.8319099,1.5380258 0.0353,0.1800982 0.0666,0.3274592 0.0694,0.3274592 0.003,0 0.0307,-0.05051 0.0618,-0.112409 z m 4.1047701,-7.379647 c -0.0782,-0.04527 -0.15173,-0.167611 -0.15099,-0.25105 5.027e-4,-0.08349 0.0699,-0.205707 0.14137,-0.249848 0.1342499,-0.08295 0.3286099,-0.03994 0.40928,0.09054 0.16173,0.261577 -0.13341,0.564612 -0.39966,0.410358 z M 7.2187039,7.5115585 c 0.044,-0.016899 0.2456799,-0.2674231 0.3753398,-0.466299 0.11044,-0.169364 0.3720301,-0.6712741 0.35746,-0.685822 -0.003,-0.0036 -0.0848,0.0534 -0.1795698,0.1273908 -0.2482101,0.1937972 -0.6147602,0.429278 -0.8994302,0.5778042 -0.1357799,0.07084 -0.25162,0.1364999 -0.25743,0.1458968 -0.013899,0.02241 0.17125,0.1612951 0.32683,0.245114 0.1164,0.06271 0.2098701,0.0816 0.2768002,0.05593 z M 3.0834437,3.3082903 c 0.13722,-0.2686349 0.3690202,-0.6338099 0.55744,-0.8781649 0.1656501,-0.214815 0.16501,-0.212131 0.0373,-0.155746 -0.3272798,0.144487 -0.74153,0.406769 -0.9525399,0.6030869 -0.0919,0.08548 -0.095,0.09196 -0.0827,0.1693911 0.007,0.04428 0.0338,0.121716 0.0593,0.1720569 0.0502,0.09893 0.2215099,0.3354832 0.2427501,0.335103 0.007,-1.349e-4 0.0695,-0.1107009 0.1384099,-0.245727 z"
       id="path1010-7" />
  </g>
</svg>
