<?xml version="1.0" encoding="UTF-8" standalone="no"?>
<svg
   xmlns:dc="http://purl.org/dc/elements/1.1/"
   xmlns:cc="http://creativecommons.org/ns#"
   xmlns:rdf="http://www.w3.org/1999/02/22-rdf-syntax-ns#"
   xmlns:svg="http://www.w3.org/2000/svg"
   xmlns="http://www.w3.org/2000/svg"
   xmlns:sodipodi="http://sodipodi.sourceforge.net/DTD/sodipodi-0.dtd"
   xmlns:inkscape="http://www.inkscape.org/namespaces/inkscape"
   width="10mm"
   height="10mm"
   viewBox="0 0 10 10"
   version="1.1"
   id="svg1644"
   sodipodi:docname="chicken.svg"
   inkscape:version="1.0.1 (3bc2e813f5, 2020-09-07)">
  <defs
     id="defs1638" />
  <sodipodi:namedview
     id="base"
     pagecolor="#ffffff"
     bordercolor="#666666"
     borderopacity="1.0"
     inkscape:pageopacity="0.0"
     inkscape:pageshadow="2"
     inkscape:zoom="3.959798"
     inkscape:cx="26.463938"
     inkscape:cy="-9.0614664"
     inkscape:document-units="mm"
     inkscape:current-layer="layer1"
     inkscape:document-rotation="0"
     showgrid="false"
     inkscape:window-width="1366"
     inkscape:window-height="768"
     inkscape:window-x="1600"
     inkscape:window-y="0"
     inkscape:window-maximized="0" />
  <metadata
     id="metadata1641">
    <rdf:RDF>
      <cc:Work
         rdf:about="">
        <dc:format>image/svg+xml</dc:format>
        <dc:type
           rdf:resource="http://purl.org/dc/dcmitype/StillImage" />
        <dc:title></dc:title>
      </cc:Work>
    </rdf:RDF>
  </metadata>
  <g
     inkscape:label="Layer 1"
     inkscape:groupmode="layer"
     id="layer1">
    <path
       style="fill:#000000;fill-opacity:1;stroke-width:0.0426477"
       d="m 4.435844,10.039675 c -0.0497,-0.0265 -0.0779,-0.0913 -0.0779,-0.178401 0,-0.15416 0.17922,-0.32673 0.4908801,-0.47268 0.1754098,-0.0821 0.1768099,-0.0847 0.1768099,-0.3200289 V 8.831335 l -0.434,-0.0705 C 4.096454,8.6804351 3.5380342,8.497625 3.0998842,8.2725151 2.3728441,7.898984 1.590094,7.231884 1.151164,6.611744 0.98126399,6.3716939 0.86173399,6.2518552 0.70246399,6.161904 c -0.1905,-0.10761 -0.21709,-0.1395191 -0.21709,-0.2605091 0,-0.0758 0.0398,-0.1842309 0.0882,-0.2408809 l 0.0882,-0.1029991 -0.13656,-0.0519 c -0.19709,-0.0749 -0.26252,-0.1498399 -0.26252,-0.3005201 0,-0.1613498 0.1178,-0.2727198 0.41699,-0.3942099 l 0.21558,-0.0875 -0.13047,-0.1289799 c -0.37948,-0.3751302 -0.65463,-0.82493 -0.72824,-1.1904501 -0.0794,-0.39453 0.0301,-0.63427 0.28996,-0.63427 0.11252,0 0.19403,0.0514 0.4271,0.26924 C 1.604564,3.8343148 2.9828741,4.3123338 4.477654,4.330485 c 0.44332,0.005 0.5569601,-0.007 0.72591,-0.0768 C 5.6448142,4.0703539 5.906754,3.702304 6.2742042,2.7492949 6.476004,2.225884 6.6952341,1.791464 6.840834,1.626434 l 0.0894,-0.10134 -0.10389,-0.11338 c -0.32601,-0.35566 -0.0561,-0.96900002 0.45779,-1.04011001 0.1004401,-0.0138999 0.2249901,-0.0731 0.3115101,-0.14808002 0.11908,-0.10319 0.1894899,-0.12794 0.4046099,-0.14222 0.2951997,-0.0196 0.4946597,0.051 0.6132397,0.21717 0.0517,0.0724 0.11239,0.10129999 0.21255,0.10129999 0.2001,0 0.43022,0.12650002 0.52489,0.28855001 0.10867,0.18597001 0.10689,0.51268003 -0.003,0.66648003 l -0.0843,0.11737 0.12855,0.18609 c 0.0707,0.10234 0.14172,0.25047 0.1578,0.32916 0.0167,0.0816 0.0926,0.20123 0.176771,0.2785 0.17541,0.16102 0.2846993,0.46395 0.2846993,0.78908 0,0.3513 -0.1079903,0.4029599 -0.4716403,0.2254909 -0.3015,-0.147161 -0.47686,-0.13706 -0.592109,0.0341 -0.0504,0.075 -0.114881,0.22831 -0.14317,0.340809 -0.057,0.2265 -0.037,0.3674012 0.160699,1.13694 0.15201,0.5916612 0.19088,1.2779513 0.0956,1.6879311 -0.13905,0.5981602 -0.56758,1.1942802 -1.1318196,1.57451 -0.5520901,0.372019 -1.4083702,0.6643902 -2.17958,0.74417 l -0.2781999,0.0288 v 0.19825 c 0,0.1835401 0.009,0.19994 0.12241,0.2209299 0.37221,0.069 0.5949201,0.1566 0.7818602,0.3076501 0.2428298,0.1962201 0.28571,0.2936 0.1889498,0.42916 -0.0993,0.139109 -0.22874,0.125211 -0.4361799,-0.0468 -0.2172801,-0.18019 -0.4204399,-0.26162 -0.65272,-0.26162 -0.2406099,0 -0.3900601,0.0583 -0.6354799,0.2477701 -0.2182601,0.1685389 -0.27574,0.1851489 -0.4037502,0.1166999 z M 5.8960241,8.345674 c 1.5286001,-0.2446891 2.5722796,-1.05142 2.7412796,-2.1188691 0.0617,-0.3894209 0.009,-0.854651 -0.16881,-1.49582 -0.0873,-0.3147198 -0.1201,-0.537931 -0.12289,-0.837651 -0.003,-0.3671699 0.009,-0.43419 0.12309,-0.660749 0.19296,-0.383381 0.27746,-0.4385709 0.70885,-0.4629409 l 0.3616,-0.0204 -0.20919,-0.2158901 c -0.13151,-0.135721 -0.20919,-0.254061 -0.20919,-0.318701 0,-0.32264 -0.43442,-0.65462 -0.91635,-0.70028 -0.3565295,-0.0338 -0.6245796,0.0507 -0.8651997,0.27255 -0.23104,0.21305 -0.3702899,0.46553 -0.6544098,1.1865811 C 6.0949141,4.4705628 5.6181942,4.8254829 4.2911741,4.755594 2.9920742,4.687194 1.685254,4.302123 0.91295399,3.7601928 c -0.43042,-0.3020099 -0.41403,-0.2981198 -0.27626,-0.0656 0.23206,0.3916302 0.61281001,0.75638 0.97002001,0.9292313 0.15633,0.0756 0.1943501,0.1167399 0.2057,0.2222989 0.0167,0.154871 -0.0375,0.1814798 -0.51455,0.2527311 -0.17741,0.0265 -0.33210001,0.0623 -0.34376001,0.0797 -0.0117,0.017301 0.0573,0.064 0.15321001,0.10366 0.42478,0.17584 0.48374,0.46458 0.11657,0.570829 -0.0802,0.023201 -0.0788,0.0308 0.0262,0.1357509 0.0611,0.0611 0.20367,0.2398702 0.3167,0.3971901 0.26844,0.3735901 0.61633,0.7253801 1.00889,1.02021 0.36955,0.27753 0.68436,0.3786101 1.3007,0.41763 1.2737399,0.0806 2.1293701,-0.60041 2.2610699,-1.799721 0.0377,-0.342909 0.0729,-0.39238 0.2802901,-0.393429 0.18602,-9.261e-4 0.2276199,0.1420601 0.1656701,0.5694899 -0.15695,1.08253 -0.8588801,1.8137701 -1.9361301,2.0169302 -0.33641,0.0634 -0.32351,0.0777 0.1341401,0.14786 0.3533698,0.0542 0.6927199,0.0484 1.1145999,-0.019201 z M 8.178344,2.518904 c -0.2847998,-0.0957 -0.2351,-0.53631 0.0663,-0.58822 0.2794,-0.0481 0.46251,0.11998 0.4101,0.37646 -0.0228,0.11143 -0.0614,0.15428 -0.18069,0.2 -0.0834,0.032 -0.15736,0.0567 -0.16427,0.055 -0.007,-0.002 -0.0661,-0.0212 -0.1314998,-0.0432 z m -0.6377699,-1.3621 c 0.2326299,-0.0769 0.7965496,-0.0783 1.0705596,-0.003 0.1953,0.054 0.22458,0.0533 0.2964,-0.006 0.10434,-0.0867 0.101,-0.18664893 -0.01,-0.27837891 -0.0773,-0.0642 -0.11205,-0.0678 -0.26112,-0.0268 -0.23194,0.0638 -0.21604,0.0705 -0.3223,-0.13698 -0.1532997,-0.29937999 -0.4342798,-0.28318 -0.5090598,0.0293 -0.0308,0.12867 -0.0507,0.13142 -0.36107,0.05 -0.1916999,-0.0503 -0.3720798,0.25137001 -0.2289,0.38281001 0.0679,0.0624 0.10688,0.061 0.32493,-0.0111 z"
       id="path1302-6" />
  </g>
</svg>
