<?xml version="1.0" encoding="UTF-8" standalone="no"?>
<svg
   xmlns:dc="http://purl.org/dc/elements/1.1/"
   xmlns:cc="http://creativecommons.org/ns#"
   xmlns:rdf="http://www.w3.org/1999/02/22-rdf-syntax-ns#"
   xmlns:svg="http://www.w3.org/2000/svg"
   xmlns="http://www.w3.org/2000/svg"
   xmlns:sodipodi="http://sodipodi.sourceforge.net/DTD/sodipodi-0.dtd"
   xmlns:inkscape="http://www.inkscape.org/namespaces/inkscape"
   width="10mm"
   height="10mm"
   viewBox="0 0 10 10"
   version="1.1"
   id="svg1644"
   sodipodi:docname="meat.svg"
   inkscape:version="1.0.1 (3bc2e813f5, 2020-09-07)">
  <defs
     id="defs1638" />
  <sodipodi:namedview
     id="base"
     pagecolor="#ffffff"
     bordercolor="#666666"
     borderopacity="1.0"
     inkscape:pageopacity="0.0"
     inkscape:pageshadow="2"
     inkscape:zoom="3.959798"
     inkscape:cx="26.463938"
     inkscape:cy="-9.0614664"
     inkscape:document-units="mm"
     inkscape:current-layer="layer1"
     inkscape:document-rotation="0"
     showgrid="false"
     inkscape:window-width="1366"
     inkscape:window-height="768"
     inkscape:window-x="1600"
     inkscape:window-y="0"
     inkscape:window-maximized="0" />
  <metadata
     id="metadata1641">
    <rdf:RDF>
      <cc:Work
         rdf:about="">
        <dc:format>image/svg+xml</dc:format>
        <dc:type
           rdf:resource="http://purl.org/dc/dcmitype/StillImage" />
        <dc:title></dc:title>
      </cc:Work>
    </rdf:RDF>
  </metadata>
  <g
     inkscape:label="Layer 1"
     inkscape:groupmode="layer"
     id="layer1">
    <path
       style="fill:#000000;fill-opacity:1;stroke-width:0.0221351"
       d="M 3.0710474,10.072338 C 2.5638873,10.006848 2.2196873,9.880327 1.8096573,9.6086988 0.90073727,9.0065699 0.27450727,7.8830358 0.10679727,6.5534908 c -0.0383,-0.3047288 -0.0383,-2.652604 0,-2.957331 0.11311,-0.896962 0.42471,-1.6864791 0.91391003,-2.315902 0.39944,-0.51392305 0.95556,-0.91711305 1.50295,-1.08962305 0.32174,-0.101401 0.4515401,-0.11584 1.00682,-0.111962 2.23945,0.01561 4.2799706,0.564456 5.3761896,1.44597405 0.58633,0.471478 0.963921,1.07239 1.1094501,1.7655509 0.0507,0.2414112 0.0511,0.2518612 0.0592,1.3460402 0.007,0.7684681 8.73e-4,1.1825021 -0.0157,1.365885 -0.0919,1.01589 -0.5642801,1.887024 -1.2703901,2.3423301 -0.34002,0.2192449 -0.60552,0.3005169 -1.06547,0.3261508 C 7.1804769,8.7008838 6.807937,8.772098 6.4068368,8.9223318 6.1219967,9.029032 5.9868068,9.093132 5.3777767,9.4103378 4.6137969,9.8082439 4.2763269,9.945628 3.8662368,10.025699 c -0.1933901,0.03778 -0.6546401,0.0648 -0.7953399,0.04662 z m 0.63925,-0.5237109 c 0.4390398,-0.0743 0.7258,-0.1875282 1.52101,-0.6006122 C 5.8668373,8.617893 6.0007173,8.554393 6.2886475,8.446542 6.7305874,8.281003 7.0505075,8.2161589 7.5932569,8.1821258 c 0.21843,-0.01366 0.462351,-0.04217 0.542,-0.06326 0.66803,-0.1768898 1.22795,-0.8164348 1.452961,-1.6595738 0.0558,-0.209029 0.10389,-0.576385 0.0967,-0.7373411 l -0.007,-0.1300329 -0.081,0.1361778 c -0.136631,0.2296952 -0.287151,0.4152951 -0.349771,0.4313121 -0.0873,0.022339 -0.19011,-0.05089 -0.21611,-0.153989 -0.0331,-0.1310011 -0.015,-0.1830959 0.14115,-0.4079399 0.31907,-0.4594281 0.48532,-0.9693841 0.50959,-1.5632293 0.039,-0.9541669 -0.403299,-1.740463 -1.303239,-2.3168409 C 7.2848074,1.0169248 5.4577275,0.58808575 3.5294873,0.57928575 c -0.6387701,-0.0033 -0.7737899,0.01916 -1.16321,0.190011 -0.77654,0.34072205 -1.43134003,1.15565105 -1.72083003,2.14164105 -0.56672,1.9301231 0.23018,4.076054 1.75682003,4.7308491 0.32415,0.1390221 0.51611,0.1755 0.9219599,0.175184 0.6074101,-4.762e-4 0.8871101,-0.09251 1.93636,-0.637173 0.9110303,-0.472912 1.3078302,-0.6231739 1.8856201,-0.7140961 0.2097802,-0.033 0.7912196,-0.05528 0.8548906,-0.03272 0.073,0.025831 0.122629,0.1256001 0.122629,0.2465221 0,0.08843 -0.0902,0.2243 -0.15001,0.225734 -0.24003,0.0057 -0.7820095,0.0557 -0.9349995,0.08615 -0.48173,0.09586 -0.81118,0.227584 -1.6329901,0.6528559 -0.8912,0.4611891 -1.18633,0.5757291 -1.68071,0.6523011 C 2.9217174,8.420956 2.1630073,8.1937 1.5129273,7.6339499 1.1263873,7.3011218 0.86977727,6.971783 0.61255727,6.4783259 c -0.0755,-0.1447269 -0.13899,-0.2658169 -0.14126,-0.269072 -0.01,-0.014449 0.0301,0.3487171 0.0567,0.5139449 0.18235,1.1353681 0.85106003,2.1501301 1.70932003,2.5939472 0.45823,0.2369558 0.96701,0.3169669 1.47203,0.2315059 z M 2.9439773,7.2933298 C 1.7474473,7.0658358 0.84923727,5.7309068 0.85257727,4.185116 c 8.8e-4,-0.4184341 0.10467,-0.9833521 0.24843003,-1.3533513 0.23773,-0.611657 0.64664,-1.1386849 1.11775,-1.4406409 0.15887,-0.101833 0.47674,-0.235088 0.6665701,-0.27945 0.18962,-0.04433 1.1864099,-0.04145 1.27136,0.0039 0.108,0.05734 0.1455099,0.20634 0.088,0.3490729 -0.0468,0.115705 -0.1053298,0.12655 -0.5929497,0.109566 -0.4748204,-0.0165 -0.6631503,0.0033 -0.9129704,0.09638 -0.43231,0.1610001 -0.81067,0.4927181 -1.0737,0.9413681 -0.75117003,1.281234 -0.46289,3.071475 0.62403,3.8755982 0.4790602,0.354406 1.0383401,0.4306009 1.67152,0.227734 0.25653,-0.0822 0.3741801,-0.1364292 1.0459199,-0.4821571 0.6759501,-0.3479 0.9022001,-0.4484121 1.3119103,-0.582822 0.3883099,-0.1273789 0.7564398,-0.194179 1.2320904,-0.2235729 0.22675,-0.013999 0.433159,-0.03977 0.49584,-0.06186 0.194139,-0.06845 0.352589,-0.1899122 0.50864,-0.389884 0.169229,-0.2168502 0.257039,-0.410917 0.313089,-0.6917952 0.13213,-0.66229 -0.0879,-1.1474409 -0.71976,-1.587562 -0.54605,-0.380295 -1.2425294,-0.651484 -2.2229895,-0.865546 -0.37957,-0.08288 -0.39262,-0.0877 -0.4468601,-0.1654551 -0.0468,-0.06686 -0.054,-0.09505 -0.0448,-0.17064 0.012999,-0.1050729 0.1072197,-0.2283828 0.1745498,-0.2283828 0.0811,0 0.7437401,0.1506719 1.0596701,0.2409718 0.7553399,0.215895 1.4902497,0.574484 1.8965597,0.92539 0.36974,0.319333 0.60604,0.6934951 0.69578,1.1017672 0.044,0.200134 0.0347,0.659607 -0.0183,0.9005289 -0.12475,0.5663121 -0.44033,1.0483792 -0.84557,1.291468 -0.2156,0.1293392 -0.40139,0.175545 -0.80924,0.2012612 -0.4315097,0.02722 -0.6116896,0.05422 -0.9481695,0.141995 -0.4534802,0.1183219 -0.7467301,0.242983 -1.56309,0.6644399 -0.6050902,0.312383 -0.7748302,0.3890391 -1.0468002,0.472739 -0.39947,0.122928 -0.74975,0.151144 -1.08503,0.0874 z M 8.6035369,6.54719 c -0.0341,-0.03755 -0.0548,-0.09087 -0.062,-0.1593501 -0.0281,-0.269689 0.27352,-0.3774061 0.3552,-0.126805 0.0351,0.107755 0.0168,0.2053609 -0.0527,0.2801999 -0.0741,0.07997 -0.17138,0.08237 -0.24067,0.006 z M 3.3740774,4.356444 C 2.9637274,4.301884 2.5999573,3.9150208 2.5150573,3.4429089 2.3898173,2.7465368 2.8713174,2.0685408 3.4913772,2.0681688 c 0.50038,-2.911e-4 0.9471702,0.494612 0.9735302,1.078395 0.019,0.4193451 -0.13544,0.7791732 -0.4407699,1.0274071 C 3.8678274,4.3010548 3.5751874,4.3831878 3.3740774,4.356444 Z M 3.7561873,3.7863209 c 0.20754,-0.1207511 0.32205,-0.324679 0.3212499,-0.5720901 -5.82e-4,-0.170977 -0.0503,-0.307089 -0.1594799,-0.435477 -0.2371699,-0.279134 -0.6304799,-0.278773 -0.87185,5.292e-4 -0.37262,0.4315711 -0.0498,1.1350502 0.4941501,1.0767381 0.0645,-0.0069 0.1616699,-0.03845 0.2159299,-0.06996 z m 0.85711,-2.1695741 c -0.0582,-0.03023 -0.1248701,-0.1465511 -0.1248701,-0.2181559 0,-0.1614001 0.1043401,-0.2757111 0.2286302,-0.2503441 0.19372,0.03956 0.2239298,0.384305 0.0409,0.4661279 -0.0699,0.03122 -0.0883,0.0315 -0.1446001,0.0028 z"
       id="path914-6" />
  </g>
</svg>
