<?xml version="1.0" encoding="UTF-8" standalone="no"?>
<svg
   xmlns:dc="http://purl.org/dc/elements/1.1/"
   xmlns:cc="http://creativecommons.org/ns#"
   xmlns:rdf="http://www.w3.org/1999/02/22-rdf-syntax-ns#"
   xmlns:svg="http://www.w3.org/2000/svg"
   xmlns="http://www.w3.org/2000/svg"
   xmlns:sodipodi="http://sodipodi.sourceforge.net/DTD/sodipodi-0.dtd"
   xmlns:inkscape="http://www.inkscape.org/namespaces/inkscape"
   width="10mm"
   height="10mm"
   viewBox="0 0 10 10"
   version="1.1"
   id="svg1644"
   sodipodi:docname="rice.svg"
   inkscape:version="1.0.1 (3bc2e813f5, 2020-09-07)">
  <defs
     id="defs1638" />
  <sodipodi:namedview
     id="base"
     pagecolor="#ffffff"
     bordercolor="#666666"
     borderopacity="1.0"
     inkscape:pageopacity="0.0"
     inkscape:pageshadow="2"
     inkscape:zoom="3.959798"
     inkscape:cx="26.463938"
     inkscape:cy="-9.0614664"
     inkscape:document-units="mm"
     inkscape:current-layer="layer1"
     inkscape:document-rotation="0"
     showgrid="false"
     inkscape:window-width="1366"
     inkscape:window-height="768"
     inkscape:window-x="1600"
     inkscape:window-y="0"
     inkscape:window-maximized="0" />
  <metadata
     id="metadata1641">
    <rdf:RDF>
      <cc:Work
         rdf:about="">
        <dc:format>image/svg+xml</dc:format>
        <dc:type
           rdf:resource="http://purl.org/dc/dcmitype/StillImage" />
        <dc:title></dc:title>
      </cc:Work>
    </rdf:RDF>
  </metadata>
  <g
     inkscape:label="Layer 1"
     inkscape:groupmode="layer"
     id="layer1">
    <path
       id="path1619"
       style="fill:#000000;stroke-width:0.0823939"
       d="m 1.0692717,0.01206034 c -0.0166,-0.0013 -0.0328,-9.1e-4 -0.0491,0.0012 -0.26962988,0.03523 -0.40145988,0.256534 -0.26590998,0.44628899 0.1470301,0.20583099 0.14694,0.20591499 -0.15301,0.29732499 -0.36188,0.11029101 -0.63978996,0.51647898 -0.58241996,0.85134898 0.055,0.321188 0.34952996,0.607732 0.70789006,0.688844 0.23555,0.05332 0.2703799,0.09596 0.27847998,0.341413 0.0116,0.351872 0.20954,0.6215941 0.54524,0.7431619 0.24114,0.08732 0.25672,0.117298 0.21772,0.4198073 -0.0352,0.273068 -0.003,0.3662658 0.19878,0.5759918 0.13246,0.1376151 0.4044,0.3223861 0.60429,0.410478 0.4608001,0.20309 0.4384499,0.17785 0.3234001,0.3657881 -0.0877,0.1432959 -0.17844,0.1605489 -0.8380101,0.1605489 -0.5549001,0 -0.77422,0.0303 -0.8781101,0.1211281 -0.0762,0.06658 -0.1385499,0.133055 -0.1385499,0.14776 0,0.1635691 0.21275,0.3232549 0.73819,0.554174 0.34524,0.151728 0.94393,0.453004 1.33041,0.6694329 l 0.7027201,0.393474 -0.4824201,0.05929 c -0.81435,0.1000011 -2.2889,0.857237 -2.2889,1.175458 0,0.259602 0.2426799,0.322186 1.42473,0.3678941 0.8344399,0.03227 1.4299799,0.102834 2.0553499,0.2433079 0.8449402,0.189796 1.9208202,0.5846181 2.29182,0.8409671 0.0969,0.06698 0.2413302,0.1226806 0.3208102,0.1241366 0.2192499,0.0037 1.1148298,-0.6051026 1.6863399,-1.1464176 C 10.016851,7.7303053 10.318981,6.3907442 9.6943724,4.9844354 9.2748624,4.0399375 8.2531418,2.8489902 7.8622419,2.8489902 c -0.3316301,0 -0.3976999,0.2158982 -0.2128901,0.695915 0.2577301,0.6696361 0.3679301,1.8020573 0.26006,2.6745732 -0.0916,0.740578 -0.46586,2.1557189 -0.6015299,2.2743279 -0.0383,0.03349 -0.15537,-0.2193229 -0.2602301,-0.561848 -0.10486,-0.342523 -0.3259699,-0.8785889 -0.4912001,-1.1912568 -0.29386,-0.5560521 -0.29669,-0.571441 -0.1326999,-0.7011832 0.0922,-0.07295 0.28672,-0.3407769 0.4321699,-0.5952519 0.5385702,-0.9422561 0.24755,-1.9019192 -0.5767398,-1.9019192 -0.2226702,0 -0.2326801,-0.015269 -0.17711,-0.2743028 0.12695,-0.591575 -0.3048902,-1.1124121 -0.92251,-1.1124121 -0.3082001,0 -0.3347701,-0.01839 -0.38862,-0.269338 -0.0832,-0.387643 -0.3909502,-0.665261 -0.80255,-0.723752 -0.3213002,-0.04566 -0.3503401,-0.07091 -0.4025702,-0.35179498 -0.0759,-0.408388 -0.4128899,-0.65814798 -0.8880898,-0.65814798 -0.2928001,0 -0.4103801,0.04746 -0.6357701,0.25639798 l -0.27641,0.256247 -0.29139,-0.33795098 c -0.18098,-0.209896 -0.30899,-0.305841 -0.42494,-0.315233 z m 1.7123302,0.76753899 c 0.0937,0.0029 0.1089398,0.09883 0.1089398,0.48450797 0,0.278522 -0.0322,0.506325 -0.0716,0.506325 -0.0394,0 -0.1530799,-0.09645 -0.2528299,-0.214417 -0.15701,-0.185652 -0.16806,-0.250277 -0.0826,-0.480595 0.0543,-0.14636499 0.16801,-0.27769897 0.2528299,-0.29190897 0.016801,-0.0028 0.0319,-0.0043 0.0453,-0.0039 z M 1.2066118,1.3182753 c 0.22975,-0.006 0.29973,0.03635 0.44698,0.217126 l 0.19155,0.235182 -0.38053,-0.005 c -0.50963008,-0.0065 -0.79755008,-0.113901 -0.76073008,-0.283632 0.0213,-0.09807 0.12939,-0.141555 0.39378998,-0.158443 0.04,-0.0026 0.0761,-0.0044 0.1089401,-0.0053 z m 2.71212,0.456521 c 0.0598,-0.0031 0.11566,0.03479 0.1519799,0.117516 0.0294,0.06702 0.0507,0.318366 0.0473,0.558538 -0.009,0.6664409 -0.0776,0.7439651 -0.3669501,0.4173989 -0.2483599,-0.2802689 -0.25551,-0.4098649 -0.0496,-0.8859569 0.0569,-0.131623 0.1403001,-0.203472 0.2171999,-0.207496 z m -1.84898,0.685082 c 0.18246,0.0031 0.40742,0.09563 0.6238899,0.2715951 v -1.5e-4 l 0.32908,0.2675318 -0.30842,-0.00119 c -0.1696299,-7.24e-4 -0.4670399,-0.0512 -0.6608999,-0.1122599 -0.19387,-0.06106 -0.36379,-0.111666 -0.37761,-0.1122489 -0.0138,-6.382e-4 0.0173,-0.07054 0.0692,-0.1552841 0.0666,-0.108755 0.1828499,-0.160378 0.32477,-0.157991 z m 3.15082,0.3125219 c 0.0762,-0.0046 0.1404599,0.04088 0.17883,0.1465562 0.0569,0.1566608 -0.0826,0.7308148 -0.2777799,1.143409 -0.0652,0.1377101 -0.1279602,0.250058 -0.1394201,0.2494759 C 4.970703,4.3113121 4.8732919,4.1921163 4.7656917,4.0468674 4.5815517,3.7982972 4.5774017,3.7617083 4.6935919,3.4242293 4.8273917,3.0355373 5.0528717,2.7826055 5.2205819,2.7724002 Z M 2.9277217,3.7081624 c 0.1867501,0 0.3988901,0.03308 0.5734701,0.1024689 0.2657999,0.1056352 0.7992801,0.616113 0.7992801,0.764831 0,0.07965 -0.2049301,0.04608 -0.7987602,-0.1309079 -0.72449,-0.2159261 -1.0710999,-0.4101261 -1.0343799,-0.5796041 0.0222,-0.102179 0.22028,-0.1567868 0.4603899,-0.1567879 z m 3.3692402,0.4505018 c 0.1772499,0 0.1463199,0.5936351 -0.0506,0.9727772 -0.2244301,0.4320849 -0.3263201,0.4657111 -0.5290701,0.1742429 -0.1712201,-0.2461699 -0.1711399,-0.249101 0.009,-0.562451 0.2229098,-0.387835 0.4150098,-0.5845691 0.57072,-0.5845691 z m 2.3455199,0.421613 c 0.018801,-7.937e-4 0.0533,0.03815 0.10757,0.1026192 0.3213701,0.3816789 0.5219196,1.0342639 0.5256196,1.7099209 0.003,0.577325 -0.0288,0.714113 -0.2700495,1.155596 C 8.7440717,8.0270273 7.9224018,8.9170224 8.0454318,8.5884494 8.4918119,7.3961985 8.7578017,5.8271225 8.6571119,4.9812752 c -0.0343,-0.2880098 -0.046,-0.399696 -0.0146,-0.400998 z m -4.5239199,0.733983 c 0.5538599,0 0.8181199,0.08933 1.0058,0.3397581 0.1864799,0.248802 0.0933,0.2494621 -0.55953,0.0039 -0.26656,-0.1002628 -0.5738802,-0.183941 -0.68293,-0.185978 -0.4066302,-0.0074 -0.1810301,-0.157692 0.23666,-0.157692 z m -1.06416,0.6396411 c 0.0351,-0.00249 0.1008798,0.0058 0.19138,0.019259 0.5317699,0.07901 1.34967,0.3555979 1.7359098,0.5869771 0.4241101,0.254069 0.8944501,0.7616521 1.1746502,1.2676939 0.1050798,0.189761 0.1766898,0.3565109 0.15903,0.370604 -0.017701,0.014089 -0.46487,-0.3008501 -0.99377,-0.699828 C 4.7927017,7.0996262 4.0789318,6.6126532 3.7354317,6.4164393 3.1206718,6.0652573 2.9490718,5.9612752 3.0544019,5.9539002 Z m 0.6758699,1.9089902 c 0.5887101,-0.0097 1.1607199,0.1602949 1.5971901,0.4915799 0.3247398,0.2464851 0.3934399,0.406889 0.1178899,0.2753569 C 5.2254817,8.5248724 4.1262618,8.3133803 3.2870817,8.2146865 L 2.4940018,8.1215463 2.9282319,7.9891345 c 0.2632699,-0.08028 0.5344398,-0.1218562 0.8020399,-0.126243 z" />
  </g>
</svg>
