<?xml version="1.0" encoding="UTF-8" standalone="no"?>
<svg
   xmlns:dc="http://purl.org/dc/elements/1.1/"
   xmlns:cc="http://creativecommons.org/ns#"
   xmlns:rdf="http://www.w3.org/1999/02/22-rdf-syntax-ns#"
   xmlns:svg="http://www.w3.org/2000/svg"
   xmlns="http://www.w3.org/2000/svg"
   xmlns:sodipodi="http://sodipodi.sourceforge.net/DTD/sodipodi-0.dtd"
   xmlns:inkscape="http://www.inkscape.org/namespaces/inkscape"
   width="10mm"
   height="10mm"
   viewBox="0 0 10 10"
   version="1.1"
   id="svg1644"
   sodipodi:docname="vegetable.svg"
   inkscape:version="1.0.1 (3bc2e813f5, 2020-09-07)">
  <defs
     id="defs1638" />
  <sodipodi:namedview
     id="base"
     pagecolor="#ffffff"
     bordercolor="#666666"
     borderopacity="1.0"
     inkscape:pageopacity="0.0"
     inkscape:pageshadow="2"
     inkscape:zoom="3.959798"
     inkscape:cx="26.463938"
     inkscape:cy="-9.0614664"
     inkscape:document-units="mm"
     inkscape:current-layer="layer1"
     inkscape:document-rotation="0"
     showgrid="false"
     inkscape:window-width="1366"
     inkscape:window-height="768"
     inkscape:window-x="1600"
     inkscape:window-y="0"
     inkscape:window-maximized="0" />
  <metadata
     id="metadata1641">
    <rdf:RDF>
      <cc:Work
         rdf:about="">
        <dc:format>image/svg+xml</dc:format>
        <dc:type
           rdf:resource="http://purl.org/dc/dcmitype/StillImage" />
        <dc:title></dc:title>
      </cc:Work>
    </rdf:RDF>
  </metadata>
  <g
     inkscape:label="Layer 1"
     inkscape:groupmode="layer"
     id="layer1">
    <path
       id="path880-5"
       style="fill:#000000;fill-opacity:1;stroke-width:0.0126796"
       d="m 6.3831559,0.02639399 c -0.243379,-4e-4 -0.344313,0.0193 -0.53917,0.10601 -0.417147,0.18574 -0.716482,0.58325 -0.793115,1.05318001 l -0.01678,0.10309 -0.099,0.0334 c -0.109556,0.037 -0.256101,0.10995 -0.342302,0.17044 -0.093,0.0652 -0.260657,0.22892 -0.325857,0.31803 -0.05756,0.0786 -0.153012,0.26183 -0.187157,0.35913 -0.0089,0.0239 -0.04244,0.0761 -0.07578,0.11597 -0.07722,0.0926 -0.201234,0.3501 -0.233946,0.48582 -0.114845,0.47643 -0.0011,0.94239 0.316724,1.30333 0.157812,0.17895 0.411703,0.33413 0.651504,0.3982 0.233524,0.0624 0.538725,0.0536 0.732115,-0.0212 0.07922,-0.0307 0.111456,-0.072 0.111456,-0.1432 0,-0.0613 -0.02967,-0.10909 -0.08467,-0.13616 -0.04033,-0.0199 -0.04878,-0.0193 -0.158445,0.01 -0.157212,0.0412 -0.381913,0.0419 -0.527625,0.002 -0.451514,-0.12444 -0.767805,-0.5216 -0.789149,-0.99087 -0.01422,-0.31123 0.07289,-0.57339 0.267424,-0.80476 0.022,-0.0261 0.04811,-0.0754 0.05811,-0.10953 0.04022,-0.13786 0.170368,-0.33569 0.298846,-0.45405 0.115967,-0.10683 0.313446,-0.20688 0.481114,-0.24377 0.173179,-0.0382 0.193834,-0.0661 0.205857,-0.27905 0.02211,-0.39182001 0.300479,-0.77000001 0.67307,-0.91446001 0.258302,-0.10014 0.55797,-0.0888 0.813105,0.0306 0.116567,0.0546 0.223612,0.13441 0.331557,0.24725 0.05289,0.0552 0.11149,0.10447 0.130257,0.10933 0.02289,0.006 0.06978,-0.003 0.141978,-0.027 0.09089,-0.0302 0.135601,-0.0367 0.283857,-0.0418 0.15049,-0.005 0.191201,-0.002 0.280724,0.0214 0.536192,0.13944 0.883294,0.67178001 0.796827,1.22206001 -0.01578,0.1005 -0.0056,0.12708 0.107001,0.26759 0.123789,0.15514 0.122089,0.1536 0.21829,0.19259 0.2534009,0.10268 0.4857579,0.34547 0.5838919,0.6101 0.05445,0.14696 0.06978,0.23664 0.06922,0.4086 -5e-4,0.18154 -0.02211,0.2839 -0.09333,0.44253 -0.116112,0.25864 -0.31478,0.45529 -0.5668589,0.56108 -0.215324,0.0904 -0.518659,0.0966 -0.740515,0.0152 -0.03,-0.011 -0.071,-0.0201 -0.09111,-0.0201 -0.127556,0 -0.19179,0.15841 -0.100667,0.24812 0.05378,0.0529 0.244123,0.11073 0.42718,0.12977 0.147678,0.0153 0.325702,-0.004 0.485347,-0.0512 0.4379909,-0.13103 0.7866159,-0.48578 0.9162939,-0.93234 0.1159342,-0.39928 0.05411,-0.82766 -0.169701,-1.17502 -0.1262,-0.1959 -0.365769,-0.40598 -0.564092,-0.4947 -0.057,-0.0255 -0.088,-0.0504 -0.1282229,-0.10258 l -0.05311,-0.0689 -4.34e-4,-0.17147 c -10e-4,-0.32536 -0.07133,-0.56666 -0.239201,-0.81816001 -0.07222,-0.10814 -0.247024,-0.28598 -0.350535,-0.3565 -0.101112,-0.0689 -0.284957,-0.15655 -0.392869,-0.18731 -0.203412,-0.058 -0.42228,-0.0644 -0.641537,-0.0186 l -0.09833,0.0205 -0.05867,-0.0533 c -0.178034,-0.16185 -0.371658,-0.27216 -0.583426,-0.33234 -0.112111,-0.0318 -0.1445,-0.0352 -0.336168,-0.0357 z m -5.341964,0.52133 c -0.04789,0 -0.06333,0.007 -0.09911,0.0438 -0.06756,0.0697 -0.06089,0.11357 0.04956,0.33361 0.05056,0.10072001 0.145557,0.29344001 0.211068,0.42824001 0.120234,0.24738 0.140145,0.27791 0.196301,0.30105 0.04167,0.0172 0.04411,0.0171 0.09344,-0.004 0.04945,-0.0214 0.09344,-0.0873 0.09344,-0.14038 4.5e-5,-0.0477 -0.414002,-0.89431001 -0.456336,-0.93314001 -0.02289,-0.021 -0.04722,-0.029 -0.08833,-0.029 z m 1.466942,0.1792 c -0.059,3.4e-4 -0.13899,0.0282 -0.244868,0.0831 C 1.8695079,1.014534 1.6482509,1.364474 1.6482509,1.782774 c 0,0.16816 0.03533,0.3385 0.105334,0.50676 0.0067,0.0148 0.001,0.026 -0.01611,0.0354 -0.023,0.0127 -0.02956,0.004 -0.08011,-0.10601 -0.07178,-0.15642 -0.125934,-0.24258 -0.215123,-0.34207 -0.318513,-0.35531 -0.839149,-0.43826 -1.28521897,-0.20475 -0.08644,0.0452 -0.119856,0.11737 -0.08911,0.19218 0.04189,0.10248 0.113867,0.12179 0.24046797,0.0646 0.110445,-0.0499 0.216079,-0.0778 0.333146,-0.088 0.297091,-0.0259 0.58427,0.15151 0.72446,0.44764 0.08667,0.18311 0.08711,0.17497 -0.01478,0.26105 -0.217135,0.18348 -0.380747,0.45618 -0.460569,0.76765 -0.02711,0.10561 -0.03178,0.15212 -0.03244,0.3231 -0.001,0.31344 0.03456,0.44374 0.238513,0.86627 0.139989,0.29005 0.18889,0.36519 0.243023,0.37313 0.02478,0.004 0.028,0.0117 0.028,0.0686 1.1e-5,0.0539 0.0089,0.0792 0.05489,0.15464 0.254412,0.41809 0.769915,1.07313 1.252396,1.59142 0.176401,0.18949 0.211123,0.21883 0.259057,0.21897 0.02689,7e-5 0.034,0.009 0.04611,0.0561 0.01222,0.0473 0.03744,0.0781 0.161647,0.19724 0.163588,0.157 0.379401,0.35188 0.502112,0.45338 h 2.4e-5 c 0.06833,0.0565 0.08845,0.0666 0.133166,0.0666 0.06645,0 0.124067,-0.0466 0.140767,-0.11371 0.01367,-0.0551 0.04522,-0.39294 0.06511,-0.69811 0.01967,-0.30107 0.01945,-1.1555 -3.52e-4,-1.44325 -0.01767,-0.25931 -0.02944,-0.3034 -0.08967,-0.34022 l -0.03833,-0.0234 0.032,-0.0345 c 0.06,-0.0646 0.06167,-0.09 0.02689,-0.38318 -0.05656,-0.47526 -0.145989,-0.89624 -0.27739,-1.30541 -0.08333,-0.25958 -0.105112,-0.3052 -0.158046,-0.33126 -0.038,-0.0186 -0.04089,-0.0245 -0.04011,-0.0812 10e-4,-0.0742 -0.03167,-0.12824 -0.166245,-0.27458 -0.158415,-0.17222 -0.336582,-0.29091 -0.555006,-0.36972 -0.165534,-0.0597 -0.298135,-0.08 -0.498803,-0.0763 -0.171945,0.003 -0.173012,0.003 -0.190056,-0.0283 -0.03778,-0.0697 -0.08078,-0.23875 -0.08767,-0.34549 -0.02178,-0.33353 0.149356,-0.61227 0.469347,-0.76475 0.191012,-0.091 0.192434,-0.0919 0.216823,-0.14354001 0.01978,-0.0418 0.02122,-0.0572 0.01,-0.0978 -0.02044,-0.0706 -0.06056,-0.10551 -0.1275,-0.10513 z M 2.2789659,2.509264 c 0.198023,0.003 0.381135,0.0576 0.558103,0.1657 0.08389,0.0512 0.200846,0.16316 0.360147,0.3445 l 0.05811,0.066 -0.06778,0.0464 c -0.240635,0.16497 -0.564337,0.25569 -0.830527,0.23276 -0.103667,-0.009 -0.143423,0.002 -0.18839,0.0538 -0.03289,0.0376 -0.04022,0.10732 -0.01611,0.15542 0.03633,0.0724 0.069,0.0846 0.24319,0.0898 0.305002,0.01 0.606648,-0.0694 0.863649,-0.22499 0.04167,-0.0251 0.08033,-0.0409 0.08611,-0.0349 0.03056,0.0323 0.175923,0.60568 0.22329,0.88083 0.04456,0.2589 0.07667,0.55423 0.063,0.58051 -0.01611,0.0312 -0.169568,0.15481 -0.254157,0.20479 -0.154357,0.0913 -0.304823,0.12967 -0.542615,0.13873 -0.187812,0.007 -0.192845,0.008 -0.230823,0.0431 -0.03378,0.0312 -0.03889,0.0443 -0.03889,0.10107 0,0.0565 0.0056,0.0709 0.04089,0.10737 l 0.04089,0.0421 0.208701,-4e-4 c 0.177212,-3.7e-4 0.22468,-0.005 0.314746,-0.0299 0.178546,-0.0496 0.329836,-0.1208 0.476636,-0.22451 0.01167,-0.008 0.02367,-0.0123 0.02678,-0.009 0.0033,0.003 0.01244,0.13078 0.02089,0.28316 0.018,0.32552 0.01111,1.22258 -0.01267,1.50766 -0.0089,0.10277 -0.01911,0.1912 -0.02389,0.19652 -0.0089,0.01 -0.202234,-0.16182 -0.386935,-0.34215 l -0.09256,-0.0904 0.04889,-0.0399 c 0.08789,-0.0717 0.169223,-0.15436 0.187201,-0.19024 0.04678,-0.0935 -0.0078,-0.21113 -0.101,-0.21889 -0.06311,-0.005 -0.087,0.008 -0.190036,0.10563 -0.06022,0.057 -0.121878,0.10692 -0.137211,0.1109 -0.023,0.006 -0.04944,-0.0162 -0.151045,-0.1262 -0.292079,-0.31643 -0.604637,-0.69569 -0.858683,-1.04188 -0.238579,-0.32522 -0.24419,-0.33725 -0.164345,-0.35297 0.06511,-0.0128 0.306424,-0.13945 0.408291,-0.21418 0.138379,-0.10153 0.285591,-0.25183 0.30198,-0.30834 0.02433,-0.084 -0.03233,-0.17506 -0.113512,-0.18247 -0.06978,-0.007 -0.09011,0.004 -0.189923,0.1016 -0.116934,0.11373 -0.213435,0.18481 -0.340336,0.25068 -0.08489,0.044 -0.24419,0.10096 -0.32859,0.11738 l -0.04167,0.008 0.0089,-0.0495 c 0.0078,-0.045 -0.0033,-0.0726 -0.11689,-0.2995 -0.137201,-0.27443 -0.191545,-0.40207 -0.220679,-0.51818 -0.09967,-0.3974 0.01111,-0.81319 0.293435,-1.10395 0.114056,-0.11733 0.17549,-0.15548 0.394336,-0.24488 0.180534,-0.0738 0.198256,-0.0785 0.326002,-0.0857 0.02889,-0.002 0.05756,-0.002 0.08578,-0.002 z m 4.634349,0.19044 c -0.258413,0 -0.292591,0.002 -0.334147,0.0246 -0.05589,0.0296 -0.09622,0.0723 -0.114089,0.12128 -0.0089,0.0226 -0.01322,0.17608 -0.01322,0.40837 0,0.20465 -0.0044,0.37513 -0.01111,0.37881 -0.0056,0.004 -0.074,-0.15979 -0.151623,-0.36328 -0.117478,-0.30801 -0.148712,-0.37785 -0.186434,-0.41706 -0.04933,-0.0514 -0.132779,-0.0823 -0.186479,-0.0693 -0.06356,0.0154 -0.511236,0.20159 -0.552337,0.22979 -0.04911,0.0338 -0.09789,0.12604 -0.09789,0.18541 0,0.0241 0.09911,0.30158 0.23259,0.65123 0.471836,1.23598 0.433892,1.12543 0.478547,1.39516 0.02733,0.16494 0.04611,0.48964 0.03267,0.56369 l -0.0089,0.0465 -0.05889,-0.0606 c -0.08322,-0.0856 -0.161001,-0.12062 -0.283446,-0.12751 -0.08211,-0.004 -0.113023,-4e-4 -0.174357,0.0234 -0.160534,0.0624 -0.27289,0.22878 -0.273823,0.40514 -3.83e-4,0.0767 0.01,0.11904 0.06567,0.2835 0.07,0.20485 0.139234,0.44611 0.139234,0.48562 0,0.0225 -0.0022,0.0227 -0.04678,0.002 -0.101001,-0.0455 -0.315735,-0.11033 -0.453592,-0.13663 -0.162634,-0.0311 -0.206579,-0.0238 -0.245534,0.0402 -0.01111,0.0183 -0.05533,0.0723 -0.09811,0.1199 -0.312624,0.3474 -0.526048,0.69428 -0.628704,1.02178 -0.03544,0.11326 -0.04111,0.1507 -0.04622,0.30926 -0.0078,0.21395 0.01311,0.35683 0.07867,0.55891 0.212679,0.65653 0.833949,1.15418 1.552631,1.24366 0.024,0.003 0.144723,0.004 0.268257,0.002 0.246368,-0.004 0.380591,-0.027 0.585981,-0.0978 0.719115,-0.24789 1.228774,-0.93145 1.229307,-1.64882 1.34e-4,-0.17476 -0.063,-0.32459 -0.259423,-0.6147 -0.061,-0.0902 -0.125957,-0.19073 -0.144212,-0.22335 -0.01822,-0.0326 -0.04322,-0.0687 -0.05544,-0.0801 -0.047,-0.0439 -0.323569,-0.13406 -0.519525,-0.16935 -0.06045,-0.011 -0.112845,-0.0198 -0.116234,-0.0198 -0.0067,0 0.0022,-0.0552 0.02255,-0.13137 l 0.01289,-0.049 h 0.539981 c 0.60507,0 0.631093,-0.003 0.719649,-0.0857 0.064,-0.0598 0.09567,-0.11427 0.112045,-0.19322 0.015,-0.0718 0.01478,-0.0729 -0.06011,-0.35246 -0.07567,-0.28255 -0.08367,-0.34615 -0.083,-0.65719 4.41e-4,-0.19954 0.0067,-0.31798 0.02278,-0.42333 0.02433,-0.16016 0.09122,-0.42655 0.136145,-0.54113 0.01567,-0.0401 0.182401,-0.3483 0.370513,-0.68496 0.188079,-0.33664 0.349636,-0.63489 0.358991,-0.66274 0.01111,-0.0304 0.01378,-0.0702 0.01,-0.0994 -0.01567,-0.0958 -0.06011,-0.13595 -0.325513,-0.29451 -0.242899,-0.14508 -0.249721,-0.14819 -0.324234,-0.148 -0.064,1.8e-4 -0.08344,0.006 -0.122133,0.0365 -0.056,0.0441 -0.05811,0.0474 -0.29449,0.4723 -0.104556,0.18782 -0.197824,0.34996 -0.207358,0.36034 -0.01489,0.0161 -0.01733,-0.0434 -0.01733,-0.40964 0,-0.39507 -0.0022,-0.43225 -0.02367,-0.47633 -0.05945,-0.1202 -0.09833,-0.13155 -0.450591,-0.13155 z m -0.168335,0.30282 h 0.174668 0.174679 l 0.0067,0.68296 c 0.0044,0.5214 0.01,0.68977 0.02222,0.7118 0.02,0.0361 0.07789,0.0679 0.123789,0.0678 0.07756,-10e-5 0.100334,-0.0312 0.34548,-0.47187 0.129634,-0.23301 0.262002,-0.47005 0.294157,-0.52674 0.03211,-0.0567 0.08211,-0.14514 0.111112,-0.19652 0.029,-0.0514 0.058,-0.0934 0.06444,-0.0934 0.01656,0 0.299025,0.1694 0.299025,0.17932 0,0.004 -0.04556,0.0892 -0.101001,0.18823 -0.579814,1.03346 -0.591636,1.05687 -0.659314,1.30416 -0.09022,0.32972 -0.119369,0.57321 -0.109557,0.91615 0.0078,0.2748 0.03522,0.46329 0.10389,0.71432 0.02478,0.0904 0.042,0.17226 0.03856,0.18184 -0.0044,0.0106 -0.03522,0.0205 -0.07933,0.025 v -3e-5 c -0.07967,0.009 -1.238529,0.008 -1.322319,-2.1e-4 -0.04767,-0.004 -0.05244,-0.009 -0.05978,-0.049 -0.0056,-0.0296 0.0022,-0.0807 0.02389,-0.15712 0.07956,-0.28307 0.112556,-0.57167 0.103001,-0.89734 -0.0078,-0.24782 -0.035,-0.45063 -0.09,-0.65925 -0.01678,-0.0638 -0.164923,-0.46681 -0.329157,-0.89558 -0.164212,-0.42879 -0.296424,-0.78326 -0.29378,-0.78769 0.0089,-0.0153 0.305702,-0.12959 0.320758,-0.12358 0.0089,0.003 0.138256,0.32896 0.288768,0.72366 0.296657,0.77791 0.297879,0.78036 0.389169,0.78036 0.05356,0 0.111,-0.0295 0.132178,-0.0679 0.01222,-0.0222 0.01745,-0.20486 0.02222,-0.78912 z m -1.117306,2.95735 c 0.05344,0 0.108889,0.0317 0.129734,0.0743 0.02522,0.0516 0.07733,0.30919 0.119867,0.59239 0.02045,0.13633 0.04622,0.2658 0.05711,0.28771 0.028,0.0559 0.08489,0.0765 0.211313,0.0765 0.05856,0 0.106445,0.003 0.106445,0.006 0,0.0153 -0.06256,0.17537 -0.092,0.23551 -0.03744,0.0763 -0.04078,0.11734 -0.01378,0.17112 0.03144,0.0627 0.07878,0.0795 0.196857,0.0696 0.125522,-0.0106 0.408045,0.0305 0.408045,0.0592 0,0.0175 -0.193389,0.13594 -0.272068,0.16661 -0.127955,0.0499 -0.157411,0.0693 -0.181212,0.11962 -0.02978,0.0631 -0.019,0.11236 0.03822,0.17424 0.09056,0.0979 0.148457,0.17973 0.20109,0.28427 0.02967,0.059 0.05111,0.11033 0.04744,0.11406 -0.01,0.0102 -0.165068,-0.0446 -0.268024,-0.095 -0.06811,-0.0332 -0.121278,-0.074 -0.208334,-0.15963 -0.106334,-0.10465 -0.12129,-0.115 -0.16579,-0.115 -0.07033,0 -0.108778,0.038 -0.164623,0.16284 -0.06078,0.1361 -0.15339,0.23967 -0.305224,0.34176 -0.107556,0.0723 -0.143845,0.0884 -0.143845,0.0638 0,-0.0363 0.06989,-0.25076 0.105667,-0.32445 0.06233,-0.12821 0.06289,-0.17571 0.0022,-0.23796 l -0.04167,-0.0429 -0.161179,5.3e-4 c -0.154034,3.9e-4 -0.344613,-0.0269 -0.371291,-0.0535 -0.01589,-0.0159 0.183668,-0.13748 0.301602,-0.18382 0.123279,-0.0483 0.16429,-0.0897 0.16429,-0.16521 0,-0.0436 -0.01111,-0.0619 -0.07689,-0.13755 -0.08478,-0.0963 -0.136801,-0.17497 -0.196157,-0.29663 -0.04489,-0.092 -0.04333,-0.0932 0.07444,-0.0538 0.150845,0.0506 0.257801,0.11237 0.350513,0.20268 0.08689,0.0847 0.08978,0.0862 0.15649,0.0862 0.059,0 0.072,-0.005 0.09811,-0.036 0.04689,-0.0563 0.04933,-0.0923 0.01889,-0.27965 -0.03767,-0.23202 -0.100222,-0.48127 -0.177745,-0.70873 -0.03511,-0.10276 -0.06633,-0.21442 -0.06967,-0.2481 -0.0056,-0.0565 -0.0022,-0.0648 0.03778,-0.10632 0.03145,-0.0323 0.05467,-0.0451 0.08289,-0.0451 z m -0.897439,1.21129 c 0.0067,0 0.03522,0.0479 0.06367,0.10631 0.02845,0.0584 0.07056,0.13671 0.09356,0.17389 l 0.04178,0.0676 -0.05289,0.0342 c -0.221901,0.14353 -0.408946,0.293 -0.446747,0.35704 -0.04311,0.0729 -0.02155,0.16224 0.04933,0.20488 0.08645,0.052 0.475903,0.16388 0.571514,0.16418 0.05311,1.6e-4 0.05922,0.0152 0.03611,0.0874 -0.03356,0.10497 -0.06956,0.30094 -0.07778,0.42429 -0.01,0.13635 0.0033,0.17012 0.07778,0.20669 0.05667,0.028 0.109334,0.0139 0.302579,-0.0811 0.201912,-0.0991 0.366558,-0.21603 0.480714,-0.34136 0.05244,-0.0576 0.09533,-0.10999 0.09533,-0.1165 0,-0.0226 0.02833,-0.0115 0.118534,0.0466 0.156423,0.1007 0.395813,0.18655 0.641648,0.23011 0.08267,0.0147 0.114412,0.0154 0.148534,0.004 0.06022,-0.0209 0.096,-0.0747 0.09433,-0.14163 -0.0022,-0.0915 -0.144656,-0.43519 -0.242135,-0.58437 -0.02044,-0.0314 -0.03722,-0.0622 -0.03722,-0.0687 0,-0.007 0.038,-0.0346 0.08433,-0.0625 0.04633,-0.028 0.119356,-0.0775 0.162212,-0.11009 0.04289,-0.0326 0.08267,-0.0592 0.08845,-0.0592 0.01422,0 0.215712,0.31139 0.257535,0.39801 0.04389,0.0908 0.05033,0.17202 0.02656,0.33314 -0.05933,0.40223 -0.284924,0.76336 -0.622748,0.99674 -0.196123,0.13549 -0.364435,0.20784 -0.599048,0.25752 -0.145989,0.0309 -0.403169,0.0423 -0.545103,0.0242 -0.555725,-0.0711 -1.042839,-0.43336 -1.250073,-0.92981 -0.09511,-0.22795 -0.132735,-0.5115 -0.09311,-0.70285 0.03778,-0.18257 0.145478,-0.41246 0.29359,-0.62673 0.08678,-0.12545 0.222779,-0.29142 0.238891,-0.29142 z" />
  </g>
</svg>
